<svg viewBox="0 0 364.98 285.68" xmlns="http://www.w3.org/2000/svg" xmlns:xlink="http://www.w3.org/1999/xlink"><linearGradient id="a" gradientTransform="matrix(-1 0 0 -1 -305.95 352)" gradientUnits="userSpaceOnUse" x1="-553.86" x2="-661.67" y1="120.14" y2="48.26"><stop offset=".01"/><stop offset=".08" stop-opacity=".69"/><stop offset=".21" stop-opacity=".32"/><stop offset="1" stop-opacity="0"/></linearGradient><linearGradient id="b" gradientTransform="matrix(1 0 0 -1 0 352)" x1="244.19" x2="331.64" xlink:href="#a" y1="95.84" y2="280.24"/><linearGradient id="c" gradientTransform="matrix(-.99149036 -.1301801 .1301801 -.99149036 -462.22 51.25)" x1="-755.66" x2="-616.77" xlink:href="#a" y1="-7.43" y2="-182.04"/><linearGradient id="d" gradientTransform="matrix(1 0 0 -1 0 352)" x1="92.81" x2="147.89" xlink:href="#a" y1="168.11" y2="135.57"/><linearGradient id="e" gradientTransform="matrix(1 0 0 -1 -19.54 314.22)" gradientUnits="userSpaceOnUse" x1="126.13" x2="120.16" y1="159.01" y2="188.85"><stop offset=".01" stop-color="#fff"/><stop offset="1" stop-color="#fff" stop-opacity="0"/></linearGradient><linearGradient id="f" gradientTransform="matrix(1 0 0 -1 -19.54 314.22)" x1="150.51" x2="221.84" xlink:href="#a" y1="207.95" y2="173.67"/><linearGradient id="g" gradientTransform="matrix(1 0 0 -1 0 352)" x1="145.93" x2="211.25" xlink:href="#a" y1="204.9" y2="181.82"/><linearGradient id="h" gradientTransform="matrix(1 0 0 -1 0 352)" x1="160.73" x2="160.17" xlink:href="#a" y1="178.44" y2="210.82"/><linearGradient id="i" gradientTransform="matrix(.16 .99 .99 -.16 -1394.52 -412.45)" x1="793.95" x2="744.57" xlink:href="#a" y1="1363.03" y2="1330.11"/><linearGradient id="j" gradientTransform="matrix(.28 .96 .96 -.28 -1116.96 -321.38)" x1="788.75" x2="791.58" xlink:href="#e" y1="1038.41" y2="991.15"/><linearGradient id="k" gradientTransform="matrix(.28 .96 .96 -.28 -1136.5 -359.16)" x1="771.92" x2="835.54" xlink:href="#a" y1="1030.49" y2="950.52"/><path d="m340 307.81a108.27 108.27 0 0 1 -22.64 9.19c-37.1 10.48-75.38 7.13-112.1-2.43-19.93-5.19-41.73-12.26-62.48-11.17-15 .78-29.4 6.51-44.74 6.44-25.24-.1-43.07-13-60.52-30.87-17.85-18.29-20.1-53.7-16.58-78.4 3.8-26.68 16.28-51.89 34.83-70.38 8.31-8.3 17.73-15.19 26.63-22.76 26.87-22.76 50.35-52.11 82.9-63.9s68.7-3.71 101.2 8.54c25 9.41 50.88 22.9 63.1 47.8 7.11 14.48 8.75 31.34 15.18 46.18 16.13 37.22 46.84 55.65 38.25 101.17a97.6 97.6 0 0 1 -8.64 26.58c-7.66 14.88-20.11 26.2-34.39 34.01z" fill="#a170d9" opacity=".18" transform="translate(-19.54 -37.78)"/><path d="m220.62 243.92 52.6 24a4.64 4.64 0 0 0 6.14-2.29l13.45-29.47a4.41 4.41 0 0 0 .42-1.75 4.65 4.65 0 0 0 -2.7-4.4l-52.6-24a4.6 4.6 0 0 0 -6.19 2.24l-13.46 29.49a4.63 4.63 0 0 0 2.28 6.15z" fill="#a170d9" transform="translate(-19.54 -37.78)"/><path d="m220.62 243.92 52.6 24a4.64 4.64 0 0 0 6.14-2.29l13.45-29.47a4.41 4.41 0 0 0 .42-1.75 4.65 4.65 0 0 0 -2.7-4.4l-52.6-24a4.6 4.6 0 0 0 -6.19 2.24l-13.46 29.49a4.63 4.63 0 0 0 2.28 6.15z" fill="url(#a)" transform="translate(-19.54 -37.78)"/><path d="m218.19 242.82 52.6 24a4.64 4.64 0 0 0 6.14-2.28l13.45-29.48a4.58 4.58 0 0 0 .42-1.74 4.65 4.65 0 0 0 -2.71-4.4l-52.59-24a4.64 4.64 0 0 0 -6.14 2.29l-13.46 29.48a4.63 4.63 0 0 0 2.29 6.13z" fill="#a170d9" transform="translate(-19.54 -37.78)"/><path d="m273.05 194.09-16.11-42.32-42.5 16.51 54.5 33.18z" fill="#a170d9"/><path d="m231.55 205 16.45 36 44.61-9.11-16.11-42.32s-43.75 14.81-44.95 15.43z" fill="url(#b)" transform="translate(-19.54 -37.78)"/><path d="m243.79 200.45 4.3 27.15-49.43-22.56 23.9-14.72 5.88 12.88z" fill="url(#c)"/><rect fill="#fff" height="39.59" rx="15.26" width="126.94" x="126.31" y="48.26"/><rect fill="#fff" height="39.59" rx="15.26" width="126.94" x="147.74" y="92.48"/><rect fill="#fff" height="39.59" rx="15.26" width="126.94" x="119.72" y="137.75"/><path d="m176.27 195.6a15 15 0 1 1 -15-15 14.92 14.92 0 0 1 15 14.84z" fill="#a170d9" opacity=".18" transform="translate(-19.54 -37.78)"/><circle cx="141.32" cy="156.54" fill="#a170d9" opacity=".34" r="4.44"/><path d="m170.53 207.4a15 15 0 0 1 -19.17-.54 10 10 0 0 1 19.17.54z" fill="#a170d9" opacity=".34" transform="translate(-19.54 -37.78)"/><path d="m171.57 146.11h63.25v3.87h-63.25z" fill="#a170d9" opacity=".18"/><path d="m171.57 152.98h63.25v3.87h-63.25z" fill="#a170d9" opacity=".18"/><path d="m171.57 159.85h63.25v3.87h-63.25z" fill="#a170d9" opacity=".18"/><path d="m171.57 166.72h63.25v3.87h-63.25z" fill="#a170d9" opacity=".18"/><ellipse cx="150.82" cy="246.31" fill="#a170d9" opacity=".18" rx="104.8" ry="12.77"/><path d="m104.33 280c-.89.68-1.67 1.85-1.2 2.88s1.74 1.17 2.82 1.2a53.48 53.48 0 0 0 12.17-1.08.55.55 0 0 0 .32-.14.52.52 0 0 0 .11-.36 55.26 55.26 0 0 0 .38-7.5c-2.2-.62-4.75.13-6.72 1.14-2.53 1.25-5.63 2.12-7.88 3.86z" fill="#a170d9" transform="translate(-19.54 -37.78)"/><path d="m145.91 278.49c.89.69 1.68 1.86 1.21 2.88s-1.75 1.18-2.83 1.2a52.89 52.89 0 0 1 -12.17-1.11.55.55 0 0 1 -.32-.14.58.58 0 0 1 -.1-.36 52.2 52.2 0 0 1 -.38-7.5c2.2-.63 4.75.13 6.72 1.14 2.53 1.29 5.62 2.16 7.87 3.89z" fill="#a170d9" transform="translate(-19.54 -37.78)"/><path d="m112.87 207.84v67.85s3.78 1.35 6.08 0l7.14-57.16 5 56.22s4 .94 7-.41l3-67s-17.72-3.99-28.22.5z" fill="#473f47" transform="translate(-19.54 -37.78)"/><path d="m164.37 171c-1.91 7.67-1.88 11.42-4.79 18.77-.78 2-2 4.2-4.1 4.45-1.6.19-3.07-.88-4.34-1.88q-5.23-4.17-10.49-8.34a166.59 166.59 0 0 0 .8 24.87c-4.84 2.55-9.94 5.16-15.41 5a26.4 26.4 0 0 1 -9.88-2.69c-.75-.32-1.48-.65-2.21-1a1.41 1.41 0 0 1 -.67-.48c-1-1.56-.53-5.48-.61-7.33-.12-2.82-.26-5.65-.4-8.48-.06-1-.11-1.93-.18-2.9-.25-4.59-.54-9.16-1-13.75.08.79-.71 2.21-1 3-.37 1.24-.74 2.5-1.12 3.75a28.18 28.18 0 0 0 -1 3.48c-.22 1.43.47 2.8.38 4.27a4 4 0 0 1 -1.6 3.16c-1.55 1-3.58.38-5.27-.34a4.34 4.34 0 0 1 -2.33-1.68 4.45 4.45 0 0 1 -.15-2.88 70.87 70.87 0 0 1 4.13-15.54c1.69-4.38 3.35-9.16 8-11.12 2.41-1 5.28-1.07 7.86-1.12l9.08-.18a29.17 29.17 0 0 1 8.59.67c3.69 1 6 3.76 8.09 6.81q3.9 5.74 7.32 11.82c1.62-5.39 1.45-6.78 3.41-12.05a41.34 41.34 0 0 1 8.89 1.71z" fill="#a170d9" transform="translate(-19.54 -37.78)"/><path d="m125.65 192.44a5.3 5.3 0 0 1 -4.29 2.09 39.65 39.65 0 0 0 -4 .35 1.94 1.94 0 0 0 -1 .41 2 2 0 0 0 -.41.88c-1.25 4.67-.11 9.6.29 14.41a1 1 0 0 1 -.06.59c-.75-.32-1.48-.65-2.21-1a1.41 1.41 0 0 1 -.67-.48c-1-1.56-.53-5.48-.61-7.33-.12-2.82-.26-5.65-.4-8.48-.06-1-.11-1.93-.18-2.9.23-.06.47-.1.7-.14l6.45-1.1c1.59-.28 4-1.22 5.59-.62s1.54 2.13.8 3.32z" fill="url(#d)" transform="translate(-19.54 -37.78)"/><path d="m118.72 162.19c1.52-1.34 2.92-3.81 2.64-5.91s-1.81-4.31-2.7-6.3c-.45-1-.9-2.23-.36-3.21a8.34 8.34 0 0 1 1.09-1.21c.92-1 1.17-2.46 1.78-3.69a6.44 6.44 0 0 1 5.08-3.47 6 6 0 0 1 5.47 2.72 9.27 9.27 0 0 1 1.07 3.11 24.66 24.66 0 0 1 .11 8.82 7.74 7.74 0 0 1 -1 2.87 3.2 3.2 0 0 1 -2.48 1.55c-.53 0-1.14-.12-1.51.25a1.15 1.15 0 0 0 -.3.66 3.48 3.48 0 0 0 .25 2.11 11.75 11.75 0 0 1 .76 2.6c.2.95.33 2.09-.4 2.72a2.44 2.44 0 0 1 -1.57.44 9.88 9.88 0 0 1 -7.93-4.06z" fill="#fcbdba" transform="translate(-19.54 -37.78)"/><path d="m109.16 141.25 6.84-22.01-31.62 7.85 17.31 24.1z" fill="url(#e)"/><path d="m135 136.18a4 4 0 0 0 -1.06-1.8 5.67 5.67 0 0 0 -5.52-1.47c-.92.26-1.77.76-2.68 1.07a28.4 28.4 0 0 1 -4.86.66c-1.62.23-3.35.89-4.11 2.34a11 11 0 0 0 -.7 3.15c-.54 2.75-2.51 5.48-1.5 8.1s4.84 4.63 6.41 6.83c.4-.94-.08-2.82-.49-3.76a1.59 1.59 0 0 1 -1.58-1.07 3.34 3.34 0 0 1 -.49-1.65 1.84 1.84 0 0 1 .58-1.58 1.25 1.25 0 0 1 1.58.47 3.56 3.56 0 0 1 .48 1.74c2-1.91-.19-5.78 1.61-7.89a29.51 29.51 0 0 0 4.23 1.19 10.56 10.56 0 0 0 4.49-.58c2.03-.78 4.15-3.49 3.61-5.75z" fill="#fc682d" transform="translate(-19.54 -37.78)"/><path d="m103.09 187a5.45 5.45 0 0 0 -2.35 1.87 3.91 3.91 0 0 0 -.07 3.85 5 5 0 0 0 3.12 2.37c1.88.5 3.87 0 5.76-.48l6.75-1.74a.88.88 0 0 0 .48-.24.83.83 0 0 0 0-.75c-.43-1.64-.71-3.42-1.3-5-.53-1.4-1.16-1.39-2.64-1.43-3.24-.06-6.77.09-9.75 1.55z" fill="#a170d9" transform="translate(-19.54 -37.78)"/><path d="m159.08 171.83a1.46 1.46 0 0 0 .82-.19 1.39 1.39 0 0 0 .42-.51 5.23 5.23 0 0 0 .7-2.56 3.79 3.79 0 0 1 .13-1.3 4.46 4.46 0 0 1 .49-.78 6.83 6.83 0 0 0 .69-4.28 4.34 4.34 0 0 0 -.32-1.63 3.07 3.07 0 0 0 -2-1.57 9.15 9.15 0 0 0 -2.61-.25 3.48 3.48 0 0 0 -1.66.26c-.76.38-1.16 2.09-1.31 2.88a5.37 5.37 0 0 0 .71 3.77 5.54 5.54 0 0 1 .58 1c.42 1.14-.57 2.77.16 3.76a4.52 4.52 0 0 0 3.2 1.4z" fill="#fcbdba" transform="translate(-19.54 -37.78)"/><path d="m172.33 143.18v23.82a19.12 19.12 0 0 0 -2.63-2.46 24.28 24.28 0 0 0 -14.09-5.26 4.83 4.83 0 0 1 -4.3-2.8 5.15 5.15 0 0 1 -.41-2.66 4.75 4.75 0 0 1 4.86-4c2.7-.11 8-1.11 16.57-6.64z" fill="#a170d9" transform="translate(-19.54 -37.78)"/><ellipse cx="153.88" cy="117.28" fill="#a170d9" rx="6.14" ry="11.89"/><ellipse cx="153.88" cy="117.28" fill="url(#f)" rx="6.14" ry="11.89"/><path d="m167.85 150.05 5.57 1.74v6l-5.62 2.06a24 24 0 0 1 .05-9.8z" fill="url(#g)" transform="translate(-19.54 -37.78)"/><path d="m157.11 165h3.47v3.05a1.74 1.74 0 0 1 -1.74 1.74 1.74 1.74 0 0 1 -1.74-1.74v-3.05z" fill="#a170d9" transform="translate(-19.54 -37.78)"/><ellipse cx="153.88" cy="117.01" fill="#a170d9" rx="1.41" ry="3"/><path d="m169.7 164.49a24.28 24.28 0 0 0 -14.09-5.26 4.83 4.83 0 0 1 -4.3-2.8c.13.14 1.62 1.56 5.81.85 4.4-.75 10.48 1.48 10.48 1.48z" fill="url(#h)" transform="translate(-19.54 -37.78)"/><path d="m125 190.39h-4.22a1.18 1.18 0 0 1 -1.23-1.13 1.1 1.1 0 0 1 0-.4l2-8.83a2 2 0 0 1 1.87-1.53h4.21a1.19 1.19 0 0 1 1.23 1.15 1.2 1.2 0 0 1 0 .38l-2 8.83a2 2 0 0 1 -1.86 1.53z" fill="#473f47" transform="translate(-19.54 -37.78)"/><path d="m119.34 184a4.31 4.31 0 0 1 .44-.59 1.23 1.23 0 0 1 .85-.37.26.26 0 0 1 .19.06.47.47 0 0 1 .06.15c.05.29.07.58.14.86a1.38 1.38 0 0 0 .42.75c.45.37 1.32.13 1.84.07l2.2-.25a1.54 1.54 0 0 1 1.31.25c.43.42.24 1.13 0 1.69-.67 1.66-1.55 3.47-3.23 4.1-2 .76-4.24-.47-6.35-.14-1.18.18-2.49.63-3.19-.68a2.13 2.13 0 0 1 .12-2.31 6.88 6.88 0 0 1 2.21-1.31 12.31 12.31 0 0 0 1.93-1.26 7.65 7.65 0 0 0 .89-.81z" fill="#fcbdba" transform="translate(-19.54 -37.78)"/><g fill="#a170d9"><path d="m202 150.05a14.92 14.92 0 1 1 0-.16z" opacity=".18" transform="translate(-19.54 -37.78)"/><circle cx="167.07" cy="110.99" opacity=".34" r="4.44"/><path d="m196.28 161.85a15 15 0 0 1 -19.17-.54 10 10 0 0 1 19.17.54z" opacity=".34" transform="translate(-19.54 -37.78)"/><path d="m197.32 100.56h63.25v3.87h-63.25z" opacity=".18"/><path d="m197.32 107.43h63.25v3.87h-63.25z" opacity=".18"/><path d="m197.32 114.3h63.25v3.87h-63.25z" opacity=".18"/><path d="m197.32 121.17h63.25v3.87h-63.25z" opacity=".18"/><path d="m182.16 105.83a15 15 0 1 1 -15-15 15 15 0 0 1 15 15z" opacity=".18" transform="translate(-19.54 -37.78)"/><circle cx="147.2" cy="66.78" opacity=".34" r="4.44"/><path d="m176.42 117.64a15 15 0 0 1 -19.18-.55 10 10 0 0 1 19.18.55z" opacity=".34" transform="translate(-19.54 -37.78)"/><path d="m177.46 56.35h63.25v3.87h-63.25z" opacity=".18"/><path d="m177.46 63.22h63.25v3.87h-63.25z" opacity=".18"/><path d="m177.46 70.08h63.25v3.87h-63.25z" opacity=".18"/><path d="m177.46 76.95h63.25v3.87h-63.25z" opacity=".18"/><circle cx="246.47" cy="48.79" r="5.76"/><path d="m73.85 168.11-14.68-22a2.14 2.14 0 0 1 .53-3l12.4-8.21a2.11 2.11 0 0 1 .76-.31 2.14 2.14 0 0 1 2.19.9l14.68 22a2.14 2.14 0 0 1 .26 1.79 2.09 2.09 0 0 1 -.85 1.15l-12.35 8.27a2.12 2.12 0 0 1 -2.93-.57z" transform="translate(-19.54 -37.78)"/></g><path d="m73.85 168.11-14.68-22a2.14 2.14 0 0 1 .53-3l12.4-8.21a2.11 2.11 0 0 1 .76-.31 2.14 2.14 0 0 1 2.19.9l14.68 22a2.14 2.14 0 0 1 .26 1.79 2.09 2.09 0 0 1 -.85 1.15l-12.35 8.27a2.12 2.12 0 0 1 -2.93-.57z" fill="url(#i)" transform="translate(-19.54 -37.78)"/><path d="m74.52 169.13-14.68-22a2.13 2.13 0 0 1 .59-2.95l12.35-8.18a2.11 2.11 0 0 1 .76-.31 2.13 2.13 0 0 1 2.18.9l14.68 22a2.12 2.12 0 0 1 -.58 2.94l-12.36 8.23a2.12 2.12 0 0 1 -2.94-.63z" fill="#a170d9" transform="translate(-19.54 -37.78)"/><path d="m90.67 160.34-17.48-4.81.35-19.92a2.13 2.13 0 0 1 2.18.9l14.68 22a2.08 2.08 0 0 1 .27 1.83z" fill="url(#j)" transform="translate(-19.54 -37.78)"/><path d="m53.77 110.61-12.58.03 13.79 20.71 4.93-11.88-6.25-1.72z" fill="url(#k)"/></svg>